<svg width="25" height="26" viewBox="0 0 25 26" fill="none" xmlns="http://www.w3.org/2000/svg">
<g clip-path="url(#clip0_1_42)">
<path d="M16.2083 1.40515H8.79165C4.4722 1.40515 0.958313 4.91904 0.958313 9.23848V12.2223C0.958313 14.5139 1.94442 16.6575 3.67128 18.1505L2.80554 24.595L10.4861 20.0556H16.2106C20.5301 20.0556 24.044 16.5417 24.044 12.2223V9.23848C24.0416 4.91904 20.5278 1.40515 16.2083 1.40515ZM23.0301 12.2223C23.0301 15.9839 19.9699 19.044 16.2083 19.044H10.2083L4.08563 22.6598L4.74998 17.7223L4.52776 17.544C2.90276 16.2408 1.96989 14.301 1.96989 12.2223V9.23848C1.96989 5.47691 5.03007 2.41904 8.79165 2.41904H16.2106C19.9722 2.41904 23.0324 5.47923 23.0324 9.2408V12.2223H23.0301Z" fill="black"/>
<path d="M12.5 8.73157H5.94907V9.74314H12.5V8.73157Z" fill="black"/>
<path d="M18.5972 11.5371H5.94907V12.5487H18.5972V11.5371Z" fill="black"/>
</g>
<defs>
<clipPath id="clip0_1_42">
<rect width="25" height="25" fill="white" transform="translate(0 0.5)"/>
</clipPath>
</defs>
</svg>
