<svg width="25" height="25" viewBox="0 0 25 25" fill="none" xmlns="http://www.w3.org/2000/svg">
<path d="M12.5 3.125C10.6458 3.125 8.83324 3.67483 7.29153 4.70497C5.74982 5.73511 4.54821 7.19929 3.83863 8.91234C3.12906 10.6254 2.94341 12.5104 3.30514 14.329C3.66688 16.1475 4.55976 17.818 5.87088 19.1291C7.182 20.4402 8.85246 21.3331 10.671 21.6949C12.4896 22.0566 14.3746 21.8709 16.0877 21.1614C17.8007 20.4518 19.2649 19.2502 20.295 17.7085C21.3252 16.1668 21.875 14.3542 21.875 12.5C21.875 10.0136 20.8873 7.62903 19.1291 5.87087C17.371 4.11272 14.9864 3.125 12.5 3.125ZM12.5 15.4297C11.982 15.4297 11.4852 15.2239 11.1189 14.8576C10.7527 14.4913 10.5469 13.9946 10.5469 13.4766C10.5486 13.1324 10.643 12.795 10.8203 12.5L12.5 9.57031L14.1797 12.5C14.357 12.795 14.4514 13.1324 14.4531 13.4766C14.4531 13.9946 14.2474 14.4913 13.8811 14.8576C13.5148 15.2239 13.018 15.4297 12.5 15.4297Z" fill="#FFE814"/>
</svg>
