<svg width="105" height="16" viewBox="0 0 105 16" fill="none" xmlns="http://www.w3.org/2000/svg">
<g clip-path="url(#clip0_1_101)">
<path d="M14.1193 7.8244C14.3928 7.55898 14.4893 7.1689 14.3686 6.80697C14.252 6.44504 13.9424 6.18365 13.5684 6.13137L10.2185 5.64477C10.0737 5.62466 9.9531 5.53217 9.88875 5.40349L8.38875 2.36729C8.22388 2.02547 7.87803 1.81233 7.49599 1.81233C7.11798 1.81233 6.77615 2.02547 6.60725 2.36729L5.11127 5.40349C5.04693 5.53217 4.92227 5.62466 4.78152 5.64477L1.42763 6.13137C1.04961 6.18767 0.743982 6.44504 0.62736 6.80697C0.510738 7.1689 0.607253 7.55898 0.87669 7.8244L3.30162 10.189C3.40618 10.2895 3.45042 10.4343 3.42629 10.5751L2.85524 13.9129C2.80698 14.2064 2.88339 14.492 3.0724 14.7172C3.36999 15.067 3.88473 15.1756 4.29492 14.9584L7.2909 13.382C7.41959 13.3177 7.5724 13.3177 7.70109 13.382L10.6971 14.9584C10.8418 15.0349 10.9987 15.0751 11.1595 15.0751C11.7105 15.0751 12.1528 14.6247 12.1528 14.0777C12.1528 14.0214 12.1488 13.9692 12.1367 13.9129L11.5657 10.5751C11.5416 10.4343 11.5898 10.2895 11.6904 10.189L14.1193 7.8244Z" fill="#3E6DA8"/>
</g>
<g clip-path="url(#clip1_1_101)">
<path d="M29.1193 7.8244C29.3928 7.55898 29.4893 7.1689 29.3686 6.80697C29.252 6.44504 28.9424 6.18365 28.5684 6.13137L25.2185 5.64477C25.0737 5.62466 24.9531 5.53217 24.8888 5.40349L23.3888 2.36729C23.2239 2.02547 22.878 1.81233 22.496 1.81233C22.118 1.81233 21.7762 2.02547 21.6073 2.36729L20.1113 5.40349C20.0469 5.53217 19.9223 5.62466 19.7815 5.64477L16.4276 6.13137C16.0496 6.18767 15.744 6.44504 15.6274 6.80697C15.5107 7.1689 15.6073 7.55898 15.8767 7.8244L18.3016 10.189C18.4062 10.2895 18.4504 10.4343 18.4263 10.5751L17.8552 13.9129C17.807 14.2064 17.8834 14.492 18.0724 14.7172C18.37 15.067 18.8847 15.1756 19.2949 14.9584L22.2909 13.382C22.4196 13.3177 22.5724 13.3177 22.7011 13.382L25.6971 14.9584C25.8418 15.0349 25.9987 15.0751 26.1595 15.0751C26.7105 15.0751 27.1528 14.6247 27.1528 14.0777C27.1528 14.0214 27.1488 13.9692 27.1367 13.9129L26.5657 10.5751C26.5416 10.4343 26.5898 10.2895 26.6904 10.189L29.1193 7.8244Z" fill="#3E6DA8"/>
</g>
<g clip-path="url(#clip2_1_101)">
<path d="M44.1193 7.8244C44.3928 7.55898 44.4893 7.1689 44.3686 6.80697C44.252 6.44504 43.9424 6.18365 43.5684 6.13137L40.2185 5.64477C40.0737 5.62466 39.9531 5.53217 39.8888 5.40349L38.3888 2.36729C38.2239 2.02547 37.878 1.81233 37.496 1.81233C37.118 1.81233 36.7762 2.02547 36.6073 2.36729L35.1113 5.40349C35.0469 5.53217 34.9223 5.62466 34.7815 5.64477L31.4276 6.13137C31.0496 6.18767 30.744 6.44504 30.6274 6.80697C30.5107 7.1689 30.6073 7.55898 30.8767 7.8244L33.3016 10.189C33.4062 10.2895 33.4504 10.4343 33.4263 10.5751L32.8552 13.9129C32.807 14.2064 32.8834 14.492 33.0724 14.7172C33.37 15.067 33.8847 15.1756 34.2949 14.9584L37.2909 13.382C37.4196 13.3177 37.5724 13.3177 37.7011 13.382L40.6971 14.9584C40.8418 15.0349 40.9987 15.0751 41.1595 15.0751C41.7105 15.0751 42.1528 14.6247 42.1528 14.0777C42.1528 14.0214 42.1488 13.9692 42.1367 13.9129L41.5657 10.5751C41.5416 10.4343 41.5898 10.2895 41.6904 10.189L44.1193 7.8244Z" fill="#3E6DA8"/>
</g>
<g clip-path="url(#clip3_1_101)">
<path d="M59.1193 7.8244C59.3928 7.55898 59.4893 7.1689 59.3686 6.80697C59.252 6.44504 58.9424 6.18365 58.5684 6.13137L55.2185 5.64477C55.0737 5.62466 54.9531 5.53217 54.8888 5.40349L53.3888 2.36729C53.2239 2.02547 52.878 1.81233 52.496 1.81233C52.118 1.81233 51.7762 2.02547 51.6073 2.36729L50.1113 5.40349C50.0469 5.53217 49.9223 5.62466 49.7815 5.64477L46.4276 6.13137C46.0496 6.18767 45.744 6.44504 45.6274 6.80697C45.5107 7.1689 45.6073 7.55898 45.8767 7.8244L48.3016 10.189C48.4062 10.2895 48.4504 10.4343 48.4263 10.5751L47.8552 13.9129C47.807 14.2064 47.8834 14.492 48.0724 14.7172C48.37 15.067 48.8847 15.1756 49.2949 14.9584L52.2909 13.382C52.4196 13.3177 52.5724 13.3177 52.7011 13.382L55.6971 14.9584C55.8418 15.0349 55.9987 15.0751 56.1595 15.0751C56.7105 15.0751 57.1528 14.6247 57.1528 14.0777C57.1528 14.0214 57.1488 13.9692 57.1367 13.9129L56.5657 10.5751C56.5416 10.4343 56.5898 10.2895 56.6904 10.189L59.1193 7.8244Z" fill="#3E6DA8"/>
</g>
<g clip-path="url(#clip4_1_101)">
<path d="M74.1193 7.8244C74.3928 7.55898 74.4893 7.1689 74.3686 6.80697C74.252 6.44504 73.9424 6.18365 73.5684 6.13137L70.2185 5.64477C70.0737 5.62466 69.9531 5.53217 69.8888 5.40349L68.3888 2.36729C68.2239 2.02547 67.878 1.81233 67.496 1.81233C67.118 1.81233 66.7762 2.02547 66.6073 2.36729L65.1113 5.40349C65.0469 5.53217 64.9223 5.62466 64.7815 5.64477L61.4276 6.13137C61.0496 6.18767 60.744 6.44504 60.6274 6.80697C60.5107 7.1689 60.6073 7.55898 60.8767 7.8244L63.3016 10.189C63.4062 10.2895 63.4504 10.4343 63.4263 10.5751L62.8552 13.9129C62.807 14.2064 62.8834 14.492 63.0724 14.7172C63.37 15.067 63.8847 15.1756 64.2949 14.9584L67.2909 13.382C67.4196 13.3177 67.5724 13.3177 67.7011 13.382L70.6971 14.9584C70.8418 15.0349 70.9987 15.0751 71.1595 15.0751C71.7105 15.0751 72.1528 14.6247 72.1528 14.0777C72.1528 14.0214 72.1488 13.9692 72.1367 13.9129L71.5657 10.5751C71.5416 10.4343 71.5898 10.2895 71.6904 10.189L74.1193 7.8244Z" fill="#3E6DA8"/>
</g>
<path d="M81.598 8.54545C81.598 7.20312 81.772 5.9691 82.12 4.84339C82.4716 3.71413 82.9723 2.67543 83.6222 1.72727H84.7301C84.4744 2.07884 84.2347 2.51207 84.011 3.02699C83.7908 3.53835 83.5973 4.10121 83.4304 4.71555C83.2635 5.32635 83.1321 5.95845 83.0362 6.61186C82.9439 7.26527 82.8977 7.9098 82.8977 8.54545C82.8977 9.39062 82.9794 10.2482 83.1428 11.1183C83.3061 11.9883 83.5263 12.7962 83.8033 13.5419C84.0803 14.2876 84.3892 14.8949 84.7301 15.3636H83.6222C82.9723 14.4155 82.4716 13.3786 82.12 12.2528C81.772 11.1236 81.598 9.88778 81.598 8.54545ZM86.5638 14V13.0412L90.1647 9.09943C90.5873 8.63778 90.9353 8.23651 91.2087 7.8956C91.4822 7.55114 91.6846 7.22798 91.816 6.92614C91.9509 6.62074 92.0184 6.30114 92.0184 5.96733C92.0184 5.58381 91.926 5.25178 91.7414 4.97124C91.5603 4.6907 91.3117 4.47408 90.9957 4.32138C90.6796 4.16868 90.3245 4.09233 89.9303 4.09233C89.5113 4.09233 89.1455 4.17933 88.833 4.35334C88.5241 4.52379 88.2844 4.76349 88.1139 5.07244C87.947 5.38139 87.8635 5.74361 87.8635 6.15909H86.6064C86.6064 5.51989 86.7538 4.95881 87.0486 4.47585C87.3433 3.9929 87.7446 3.61648 88.2524 3.34659C88.7638 3.0767 89.3373 2.94176 89.9729 2.94176C90.6121 2.94176 91.1785 3.0767 91.6721 3.34659C92.1657 3.61648 92.5528 3.98047 92.8334 4.43857C93.1139 4.89666 93.2542 5.40625 93.2542 5.96733C93.2542 6.36861 93.1814 6.76101 93.0358 7.14453C92.8937 7.5245 92.6452 7.94886 92.29 8.41761C91.9385 8.88281 91.4502 9.45099 90.8252 10.1222L88.3749 12.7429V12.8281H93.4459V14H86.5638ZM98.3518 8.54545C98.3518 9.88778 98.176 11.1236 97.8245 12.2528C97.4765 13.3786 96.9775 14.4155 96.3277 15.3636H95.2197C95.4754 15.0121 95.7133 14.5788 95.9335 14.0639C96.1572 13.5526 96.3525 12.9915 96.5194 12.3807C96.6863 11.7663 96.816 11.1325 96.9083 10.479C97.0042 9.82209 97.0521 9.17756 97.0521 8.54545C97.0521 7.70028 96.9704 6.84268 96.8071 5.97266C96.6437 5.10263 96.4236 4.29474 96.1466 3.54901C95.8696 2.80327 95.5606 2.19602 95.2197 1.72727H96.3277C96.9775 2.67543 97.4765 3.71413 97.8245 4.84339C98.176 5.9691 98.3518 7.20312 98.3518 8.54545Z" fill="#3E6DA8"/>
<defs>
<clipPath id="clip0_1_101">
<rect width="15" height="15" fill="white" transform="translate(0 1)"/>
</clipPath>
<clipPath id="clip1_1_101">
<rect width="15" height="15" fill="white" transform="translate(15 1)"/>
</clipPath>
<clipPath id="clip2_1_101">
<rect width="15" height="15" fill="white" transform="translate(30 1)"/>
</clipPath>
<clipPath id="clip3_1_101">
<rect width="15" height="15" fill="white" transform="translate(45 1)"/>
</clipPath>
<clipPath id="clip4_1_101">
<rect width="15" height="15" fill="white" transform="translate(60 1)"/>
</clipPath>
</defs>
</svg>
