<svg width="25" height="26" viewBox="0 0 25 26" fill="none" xmlns="http://www.w3.org/2000/svg">
<g clip-path="url(#clip0_1_24)">
<path d="M12.1852 25C11.7361 24.8936 11.3056 24.7431 10.9445 24.4375C10.3519 23.9352 10.0324 23.3033 10.0232 22.5209C10.0232 22.4514 10.0208 22.3797 10.0162 22.3102C10.0162 22.2963 10.0046 22.2824 9.98381 22.2431C9.90511 22.2431 9.81483 22.2431 9.72224 22.2431C7.59029 22.2431 5.45835 22.2431 3.3264 22.2431C2.80325 22.2431 2.63196 22.0649 2.68288 21.5417C2.77548 20.5949 3.20603 19.8357 3.98381 19.2848C4.12038 19.1875 4.17362 19.0926 4.17362 18.9237C4.16899 16.5417 4.16899 14.1598 4.16899 11.7778C4.16899 9.06254 5.20835 6.83337 7.31251 5.11809C8.15048 4.43522 9.09955 3.9468 10.1458 3.66439C10.3426 3.61115 10.419 3.53245 10.4074 3.31485C10.3681 2.55096 10.6134 1.89587 11.2431 1.43059C11.8843 0.953743 12.5996 0.870409 13.3241 1.17828C14.0602 1.49078 14.4884 2.06948 14.5787 2.87967C14.5903 2.98152 14.6019 3.08106 14.6042 3.18291C14.6181 3.63198 14.6204 3.62041 15.0301 3.76393C17.6181 4.67828 19.3634 6.43522 20.2639 9.0255C20.5695 9.90282 20.6783 10.8149 20.6759 11.7431C20.6713 14.1019 20.6759 16.4607 20.6713 18.8195C20.6713 18.9977 20.7269 19.0949 20.8773 19.1922C21.7847 19.7801 22.2755 20.6135 22.3241 21.6991C22.3403 22.0579 22.1482 22.2385 21.75 22.2385C19.6019 22.2408 17.4537 22.2385 15.3056 22.2385C15.213 22.2385 15.1204 22.2385 15.007 22.2385C14.9908 22.4352 14.9815 22.6181 14.9607 22.801C14.8357 23.8681 14.0208 24.7454 12.9676 24.9514C12.9236 24.9607 12.882 24.9815 12.8403 24.9954C12.6227 25 12.4028 25 12.1852 25ZM5.10881 18.9584C5.23381 18.9584 5.3264 18.9584 5.41899 18.9584C8.04399 18.9584 10.6667 18.9584 13.2917 18.9607C13.4074 18.9607 13.5278 18.9653 13.6389 18.9954C13.8542 19.051 13.9769 19.2292 13.9699 19.4468C13.963 19.6574 13.8218 19.838 13.6088 19.8797C13.5116 19.9005 13.4074 19.8959 13.3056 19.8959C10.5324 19.8959 7.76159 19.8959 4.98844 19.8982C4.90279 19.8982 4.80557 19.8843 4.73612 19.9213C4.18751 20.2176 3.83566 20.6713 3.67362 21.2894C9.56714 21.2894 15.4398 21.2894 21.3333 21.2894C21.1458 20.632 20.7708 20.1482 20.1713 19.875C19.8449 19.7269 19.7315 19.5093 19.7315 19.1621C19.7408 16.6783 19.7315 14.1945 19.7384 11.713C19.7408 10.4144 19.4676 9.18059 18.8195 8.05559C17.6343 6.00004 15.8727 4.74078 13.5162 4.37041C11.6204 4.0718 9.85418 4.46995 8.28937 5.5718C6.16899 7.06485 5.12038 9.14819 5.11112 11.7408C5.10187 14.0533 5.10881 16.3635 5.10881 18.676C5.10881 18.7593 5.10881 18.8426 5.10881 18.9584ZM10.9815 22.2524C10.8982 22.9399 11.1829 23.5394 11.7222 23.8449C12.2847 24.1644 12.9468 24.125 13.4352 23.7385C13.9005 23.3727 14.1458 22.7408 14.007 22.25C13.007 22.2524 12.0023 22.2524 10.9815 22.2524ZM13.6458 3.32643C13.713 2.79171 13.507 2.338 13.0903 2.10652C12.6551 1.86347 12.2153 1.88198 11.8125 2.17134C11.4236 2.45143 11.2963 2.84958 11.3519 3.32643C12.125 3.32643 12.8796 3.32643 13.6458 3.32643Z" fill="black"/>
<path d="M15.3195 19.8935C15.0695 19.8958 14.8565 19.6875 14.8542 19.4352C14.8519 19.1852 15.0648 18.9676 15.3102 18.9653C15.5532 18.963 15.7755 19.1806 15.7801 19.4259C15.7824 19.6713 15.5671 19.8889 15.3195 19.8935Z" fill="black"/>
</g>
<defs>
<clipPath id="clip0_1_24">
<rect width="25" height="25" fill="white" transform="translate(0 0.5)"/>
</clipPath>
</defs>
</svg>
