<svg width="105" height="17" viewBox="0 0 105 17" fill="none" xmlns="http://www.w3.org/2000/svg">
<g clip-path="url(#clip0_1_135)">
<path d="M14.1193 7.8244C14.3928 7.55898 14.4893 7.1689 14.3686 6.80697C14.252 6.44504 13.9424 6.18365 13.5684 6.13137L10.2185 5.64477C10.0737 5.62466 9.95308 5.53217 9.88874 5.40349L8.38874 2.36729C8.22386 2.02547 7.87802 1.81233 7.49598 1.81233C7.11796 1.81233 6.77614 2.02547 6.60724 2.36729L5.11126 5.40349C5.04692 5.53217 4.92225 5.62466 4.7815 5.64477L1.42761 6.13137C1.0496 6.18767 0.743967 6.44504 0.627345 6.80697C0.510723 7.1689 0.607237 7.55898 0.876674 7.8244L3.30161 10.189C3.40616 10.2895 3.4504 10.4343 3.42627 10.5751L2.85523 13.9129C2.80697 14.2064 2.88338 14.492 3.07239 14.7172C3.36997 15.067 3.88472 15.1756 4.29491 14.9584L7.29088 13.382C7.41957 13.3177 7.57238 13.3177 7.70107 13.382L10.6971 14.9584C10.8418 15.0349 10.9987 15.0751 11.1595 15.0751C11.7105 15.0751 12.1528 14.6247 12.1528 14.0777C12.1528 14.0214 12.1488 13.9692 12.1367 13.9129L11.5657 10.5751C11.5416 10.4343 11.5898 10.2895 11.6903 10.189L14.1193 7.8244Z" fill="#D6D6D6"/>
</g>
<g clip-path="url(#clip1_1_135)">
<path d="M29.1193 7.8244C29.3928 7.55898 29.4893 7.1689 29.3686 6.80697C29.252 6.44504 28.9424 6.18365 28.5684 6.13137L25.2185 5.64477C25.0737 5.62466 24.9531 5.53217 24.8887 5.40349L23.3887 2.36729C23.2239 2.02547 22.878 1.81233 22.496 1.81233C22.118 1.81233 21.7761 2.02547 21.6072 2.36729L20.1113 5.40349C20.0469 5.53217 19.9223 5.62466 19.7815 5.64477L16.4276 6.13137C16.0496 6.18767 15.744 6.44504 15.6273 6.80697C15.5107 7.1689 15.6072 7.55898 15.8767 7.8244L18.3016 10.189C18.4062 10.2895 18.4504 10.4343 18.4263 10.5751L17.8552 13.9129C17.807 14.2064 17.8834 14.492 18.0724 14.7172C18.37 15.067 18.8847 15.1756 19.2949 14.9584L22.2909 13.382C22.4196 13.3177 22.5724 13.3177 22.7011 13.382L25.6971 14.9584C25.8418 15.0349 25.9987 15.0751 26.1595 15.0751C26.7105 15.0751 27.1528 14.6247 27.1528 14.0777C27.1528 14.0214 27.1488 13.9692 27.1367 13.9129L26.5657 10.5751C26.5416 10.4343 26.5898 10.2895 26.6903 10.189L29.1193 7.8244Z" fill="#D6D6D6"/>
</g>
<g clip-path="url(#clip2_1_135)">
<path d="M44.1193 7.8244C44.3928 7.55898 44.4893 7.1689 44.3686 6.80697C44.252 6.44504 43.9424 6.18365 43.5684 6.13137L40.2185 5.64477C40.0737 5.62466 39.9531 5.53217 39.8887 5.40349L38.3887 2.36729C38.2239 2.02547 37.878 1.81233 37.496 1.81233C37.118 1.81233 36.7761 2.02547 36.6072 2.36729L35.1113 5.40349C35.0469 5.53217 34.9223 5.62466 34.7815 5.64477L31.4276 6.13137C31.0496 6.18767 30.744 6.44504 30.6273 6.80697C30.5107 7.1689 30.6072 7.55898 30.8767 7.8244L33.3016 10.189C33.4062 10.2895 33.4504 10.4343 33.4263 10.5751L32.8552 13.9129C32.807 14.2064 32.8834 14.492 33.0724 14.7172C33.37 15.067 33.8847 15.1756 34.2949 14.9584L37.2909 13.382C37.4196 13.3177 37.5724 13.3177 37.7011 13.382L40.6971 14.9584C40.8418 15.0349 40.9987 15.0751 41.1595 15.0751C41.7105 15.0751 42.1528 14.6247 42.1528 14.0777C42.1528 14.0214 42.1488 13.9692 42.1367 13.9129L41.5657 10.5751C41.5416 10.4343 41.5898 10.2895 41.6903 10.189L44.1193 7.8244Z" fill="#D6D6D6"/>
</g>
<g clip-path="url(#clip3_1_135)">
<path d="M59.1193 7.8244C59.3928 7.55898 59.4893 7.1689 59.3686 6.80697C59.252 6.44504 58.9424 6.18365 58.5684 6.13137L55.2185 5.64477C55.0737 5.62466 54.9531 5.53217 54.8887 5.40349L53.3887 2.36729C53.2239 2.02547 52.878 1.81233 52.496 1.81233C52.118 1.81233 51.7761 2.02547 51.6072 2.36729L50.1113 5.40349C50.0469 5.53217 49.9223 5.62466 49.7815 5.64477L46.4276 6.13137C46.0496 6.18767 45.744 6.44504 45.6273 6.80697C45.5107 7.1689 45.6072 7.55898 45.8767 7.8244L48.3016 10.189C48.4062 10.2895 48.4504 10.4343 48.4263 10.5751L47.8552 13.9129C47.807 14.2064 47.8834 14.492 48.0724 14.7172C48.37 15.067 48.8847 15.1756 49.2949 14.9584L52.2909 13.382C52.4196 13.3177 52.5724 13.3177 52.7011 13.382L55.6971 14.9584C55.8418 15.0349 55.9987 15.0751 56.1595 15.0751C56.7105 15.0751 57.1528 14.6247 57.1528 14.0777C57.1528 14.0214 57.1488 13.9692 57.1367 13.9129L56.5657 10.5751C56.5416 10.4343 56.5898 10.2895 56.6903 10.189L59.1193 7.8244Z" fill="#D6D6D6"/>
</g>
<g clip-path="url(#clip4_1_135)">
<path d="M74.1193 7.8244C74.3928 7.55898 74.4893 7.1689 74.3686 6.80697C74.252 6.44504 73.9424 6.18365 73.5684 6.13137L70.2185 5.64477C70.0737 5.62466 69.9531 5.53217 69.8888 5.40349L68.3888 2.36729C68.2239 2.02547 67.878 1.81233 67.496 1.81233C67.118 1.81233 66.7762 2.02547 66.6073 2.36729L65.1113 5.40349C65.0469 5.53217 64.9223 5.62466 64.7815 5.64477L61.4276 6.13137C61.0496 6.18767 60.744 6.44504 60.6274 6.80697C60.5107 7.1689 60.6073 7.55898 60.8767 7.8244L63.3016 10.189C63.4062 10.2895 63.4504 10.4343 63.4263 10.5751L62.8552 13.9129C62.807 14.2064 62.8834 14.492 63.0724 14.7172C63.37 15.067 63.8847 15.1756 64.2949 14.9584L67.2909 13.382C67.4196 13.3177 67.5724 13.3177 67.7011 13.382L70.6971 14.9584C70.8418 15.0349 70.9987 15.0751 71.1595 15.0751C71.7105 15.0751 72.1528 14.6247 72.1528 14.0777C72.1528 14.0214 72.1488 13.9692 72.1367 13.9129L71.5657 10.5751C71.5416 10.4343 71.5898 10.2895 71.6904 10.189L74.1193 7.8244Z" fill="#D6D6D6"/>
</g>
<path d="M81.598 9.39773C81.598 8.0554 81.772 6.82138 82.12 5.69567C82.4716 4.56641 82.9723 3.5277 83.6222 2.57954H84.7301C84.4744 2.93111 84.2347 3.36435 84.011 3.87926C83.7908 4.39062 83.5973 4.95348 83.4304 5.56783C83.2635 6.17862 83.1321 6.81072 83.0362 7.46413C82.9439 8.11754 82.8977 8.76207 82.8977 9.39773C82.8977 10.2429 82.9794 11.1005 83.1428 11.9705C83.3061 12.8406 83.5263 13.6484 83.8033 14.3942C84.0803 15.1399 84.3892 15.7472 84.7301 16.2159H83.6222C82.9723 15.2678 82.4716 14.2308 82.12 13.1051C81.772 11.9759 81.598 10.7401 81.598 9.39773ZM91.2726 8.73722V9.90909H86.4999V8.73722H91.2726ZM98.1721 8.73722V9.90909H93.3993V8.73722H98.1721ZM103.069 9.39773C103.069 10.7401 102.893 11.9759 102.541 13.1051C102.193 14.2308 101.694 15.2678 101.044 16.2159H99.9365C100.192 15.8643 100.43 15.4311 100.65 14.9162C100.874 14.4048 101.069 13.8437 101.236 13.233C101.403 12.6186 101.533 11.9847 101.625 11.3313C101.721 10.6744 101.769 10.0298 101.769 9.39773C101.769 8.55256 101.687 7.69496 101.524 6.82493C101.361 5.9549 101.14 5.14702 100.863 4.40128C100.586 3.65554 100.277 3.04829 99.9365 2.57954H101.044C101.694 3.5277 102.193 4.56641 102.541 5.69567C102.893 6.82138 103.069 8.0554 103.069 9.39773Z" fill="#3E6DA8"/>
<defs>
<clipPath id="clip0_1_135">
<rect width="15" height="15" fill="white" transform="translate(0 1)"/>
</clipPath>
<clipPath id="clip1_1_135">
<rect width="15" height="15" fill="white" transform="translate(15 1)"/>
</clipPath>
<clipPath id="clip2_1_135">
<rect width="15" height="15" fill="white" transform="translate(30 1)"/>
</clipPath>
<clipPath id="clip3_1_135">
<rect width="15" height="15" fill="white" transform="translate(45 1)"/>
</clipPath>
<clipPath id="clip4_1_135">
<rect width="15" height="15" fill="white" transform="translate(60 1)"/>
</clipPath>
</defs>
</svg>
